<?xml version="1.0" encoding="UTF-8"?>
<svg width="41px" height="35px" viewBox="0 0 41 35" version="1.1" xmlns="http://www.w3.org/2000/svg" xmlns:xlink="http://www.w3.org/1999/xlink">
    <title>切片</title>
    <g id="页面-1" stroke="none" stroke-width="1" fill="none" fill-rule="evenodd">
        <g id="logo" fill="#26B398" fill-rule="nonzero">
            <path d="M12.1481481,9.13062664 L7.36573406,15.2177111 L5.96422803,14.1923705 C4.77794905,15.0274234 3.35504891,16.5719153 3.48649922,19.133245 C3.67234875,22.7545519 8.00301776,22.9344789 9.42357453,22.8956045 C11.7142592,21.1498708 14.7268487,19.7486065 18.6803835,19.178657 C31.4570997,17.3368898 30.0762632,32.316363 25.9375736,34.358599 C25.9375736,34.358599 20.8808728,27.2171371 13.5361469,29.2326439 C6.19110272,31.2481507 2.27777778,35.0007355 2.27777778,35.0007355 C2.27777778,35.0007355 2.27926604,34.9884092 2.2825515,34.9644389 L2.29161021,34.9011749 C2.30504649,34.8106781 2.32916274,34.6605242 2.36776212,34.4591114 L2.40448289,34.2741145 C2.69571798,32.8544249 3.580075,29.5734532 5.95175799,26.4057678 C3.87380597,25.8709714 0.485956169,24.6462543 0.0377831701,20.0440125 C-0.356445706,15.9985289 2.43225036,13.5902007 3.84459498,12.6420989 L2.27777778,11.4977762 L12.1481481,9.13062664 Z M30.9712222,0.228497542 C18.5171998,2.92746936 22.2996667,12.443116 32.7050249,16.033023 C38.8786591,18.1627153 39.6348348,11.9456348 39.6348348,11.9456348 C39.6348348,11.9456348 39.6739806,12.0156674 39.7390147,12.1430918 L39.8224005,12.3099898 C40.6482592,13.9968963 43.5657785,20.948953 35.3173259,20.5253528 C25.9347111,20.0435075 17.302553,13.4776475 17.465226,5.86959754 C17.6275814,-1.73845236 30.9712222,0.228497542 30.9712222,0.228497542 Z" id="形状结合"></path>
        </g>
    </g>
</svg>